<?xml version="1.0" encoding="UTF-8"?>
<!DOCTYPE svg PUBLIC "-//W3C//DTD SVG Tiny PS//EN" "http://www.w3.org/Graphics/SVG/1.2/Tiny/svg11-tiny-ps.dtd">
<svg xmlns="http://www.w3.org/2000/svg" xmlns:xlink="http://www.w3.org/1999/xlink"
     version="1.2" baseProfile="tiny-ps"
     viewBox="0 0 36 36" width="36" height="36">
  <title>Inai</title>
  <rect width="36" height="36" rx="18" fill="#BA0453"/>
  <path d="M27.3418 10.634C26.9843 9.78886 26.4727 9.0299 25.8213 8.37849C25.1699 7.72725 24.4111 7.21571 23.5658 6.85823C22.6903 6.48781 21.7608 6.3 20.8032 6.3C19.8457 6.3 18.9161 6.48781 18.0405 6.85823C17.1953 7.21571 16.4365 7.72725 15.7851 8.37849C15.1337 9.0299 14.6222 9.78886 14.2647 10.634C13.8943 11.5097 13.7065 12.439 13.7065 13.3968V13.7067H13.3966C12.439 13.7067 11.5095 13.8945 10.6338 14.2647C9.78866 14.6222 9.02988 15.1339 8.37847 15.7852C7.72706 16.4366 7.21552 17.1955 6.85803 18.0407C6.48762 18.9163 6.2998 19.8457 6.2998 20.8032C6.2998 21.7608 6.48762 22.6903 6.85803 23.566C7.21552 24.4111 7.72706 25.1701 8.37847 25.8215C9.02988 26.4727 9.78866 26.9843 10.6338 27.3418C11.5095 27.7122 12.439 27.9 13.3966 27.9H26.0774C26.9568 27.9 27.6926 27.2741 27.8628 26.4444C27.8689 26.4148 27.8741 26.385 27.8788 26.3548C27.8835 26.3246 27.8872 26.2943 27.8905 26.2636C27.8968 26.2025 27.8998 26.1404 27.8998 26.0776V13.3968C27.8998 12.439 27.712 11.5097 27.3418 10.634ZM13.3966 25.6915C10.7011 25.6915 8.50828 23.4987 8.50828 20.8032C8.50828 18.1078 10.7011 15.9151 13.3966 15.9151H13.7065V23.2814C13.7065 23.9102 13.8348 24.5203 14.0882 25.0949C14.1796 25.3021 14.2855 25.5012 14.4058 25.6915H13.3966ZM21.1137 23.2814C21.1137 24.6104 19.966 25.6915 18.5551 25.6915H18.4735C17.0628 25.6915 15.9149 24.5437 15.9149 23.1329V15.9151H21.1137V23.2814ZM25.6913 25.6915H22.623C22.7431 25.5012 22.8492 25.3021 22.9406 25.0949C23.1938 24.5203 23.3221 23.9102 23.3221 23.2814V15.9221C24.6449 16.0195 25.6913 17.1266 25.6913 18.4737V25.6915ZM25.6913 14.4496C24.986 13.9992 24.1739 13.7437 23.3221 13.7106V13.3562C23.3221 12.9888 23.2645 12.6261 23.151 12.2782L23.1449 12.2801C22.8239 11.2935 21.8954 10.5783 20.8032 10.5783C19.4456 10.5783 18.3412 11.6828 18.3412 13.0404C18.3412 13.2713 18.3732 13.4946 18.433 13.7067H15.9149V13.3968C15.9149 10.7013 18.1078 8.50848 20.8032 8.50848C23.4986 8.50848 25.6913 10.7013 25.6913 13.3968V14.4496Z" fill="white"/>
</svg>
